<mxfile host="app.diagrams.net" modified="2023-09-08T09:58:05.211Z" agent="Mozilla/5.0 (Macintosh; Intel Mac OS X 10_15_7) AppleWebKit/605.1.15 (KHTML, like Gecko) Version/16.6 Safari/605.1.15" etag="P7AGiUdbhPEfkIyyjRT5" version="21.7.2" type="github">
  <diagram name="Page-1" id="BAptIKloEcON9kz2fW2D">
    <mxGraphModel dx="957" dy="736" grid="1" gridSize="10" guides="1" tooltips="1" connect="1" arrows="1" fold="1" page="1" pageScale="1" pageWidth="827" pageHeight="1169" math="0" shadow="0">
      <root>
        <mxCell id="0" />
        <mxCell id="1" parent="0" />
        <mxCell id="wIIheEUebPxuth35GpuM-1" value="Клієнт&lt;br&gt;" style="shape=umlActor;verticalLabelPosition=bottom;verticalAlign=top;html=1;outlineConnect=0;fillStyle=auto;treeMoving=0;shadow=0;" vertex="1" parent="1">
          <mxGeometry x="20" y="420" width="30" height="60" as="geometry" />
        </mxCell>
        <mxCell id="wIIheEUebPxuth35GpuM-3" value="вебсайт магазин" style="swimlane;whiteSpace=wrap;html=1;" vertex="1" parent="1">
          <mxGeometry x="150" y="240" width="360" height="470" as="geometry">
            <mxRectangle x="150" y="240" width="140" height="30" as="alternateBounds" />
          </mxGeometry>
        </mxCell>
        <mxCell id="wIIheEUebPxuth35GpuM-10" value="Надати асортимент" style="ellipse;whiteSpace=wrap;html=1;" vertex="1" parent="wIIheEUebPxuth35GpuM-3">
          <mxGeometry x="120" y="30" width="120" height="80" as="geometry" />
        </mxCell>
        <mxCell id="wIIheEUebPxuth35GpuM-32" style="edgeStyle=orthogonalEdgeStyle;rounded=0;orthogonalLoop=1;jettySize=auto;html=1;entryX=0.5;entryY=1;entryDx=0;entryDy=0;dashed=1;" edge="1" parent="wIIheEUebPxuth35GpuM-3" source="wIIheEUebPxuth35GpuM-15" target="wIIheEUebPxuth35GpuM-10">
          <mxGeometry relative="1" as="geometry">
            <Array as="points">
              <mxPoint x="80" y="110" />
              <mxPoint x="160" y="110" />
              <mxPoint x="160" y="130" />
              <mxPoint x="180" y="130" />
            </Array>
          </mxGeometry>
        </mxCell>
        <mxCell id="wIIheEUebPxuth35GpuM-33" value="&quot;include&quot;" style="edgeLabel;html=1;align=center;verticalAlign=middle;resizable=0;points=[];" vertex="1" connectable="0" parent="wIIheEUebPxuth35GpuM-32">
          <mxGeometry x="-0.5051" relative="1" as="geometry">
            <mxPoint as="offset" />
          </mxGeometry>
        </mxCell>
        <mxCell id="wIIheEUebPxuth35GpuM-34" style="edgeStyle=orthogonalEdgeStyle;rounded=0;orthogonalLoop=1;jettySize=auto;html=1;dashed=1;" edge="1" parent="wIIheEUebPxuth35GpuM-3" source="wIIheEUebPxuth35GpuM-15" target="wIIheEUebPxuth35GpuM-21">
          <mxGeometry relative="1" as="geometry" />
        </mxCell>
        <mxCell id="wIIheEUebPxuth35GpuM-36" value="&quot;include&quot;" style="edgeLabel;html=1;align=center;verticalAlign=middle;resizable=0;points=[];" vertex="1" connectable="0" parent="wIIheEUebPxuth35GpuM-34">
          <mxGeometry x="0.2217" y="-2" relative="1" as="geometry">
            <mxPoint as="offset" />
          </mxGeometry>
        </mxCell>
        <mxCell id="wIIheEUebPxuth35GpuM-35" style="edgeStyle=orthogonalEdgeStyle;rounded=0;orthogonalLoop=1;jettySize=auto;html=1;entryX=0.5;entryY=0;entryDx=0;entryDy=0;dashed=1;" edge="1" parent="wIIheEUebPxuth35GpuM-3" source="wIIheEUebPxuth35GpuM-15" target="wIIheEUebPxuth35GpuM-20">
          <mxGeometry relative="1" as="geometry" />
        </mxCell>
        <mxCell id="wIIheEUebPxuth35GpuM-37" value="&quot;include&quot;" style="edgeLabel;html=1;align=center;verticalAlign=middle;resizable=0;points=[];" vertex="1" connectable="0" parent="wIIheEUebPxuth35GpuM-35">
          <mxGeometry x="-0.3993" y="-1" relative="1" as="geometry">
            <mxPoint as="offset" />
          </mxGeometry>
        </mxCell>
        <mxCell id="wIIheEUebPxuth35GpuM-15" value="Замовити товар" style="ellipse;whiteSpace=wrap;html=1;" vertex="1" parent="wIIheEUebPxuth35GpuM-3">
          <mxGeometry x="20" y="120" width="120" height="80" as="geometry" />
        </mxCell>
        <mxCell id="wIIheEUebPxuth35GpuM-39" value="&quot;include&quot;" style="edgeStyle=orthogonalEdgeStyle;rounded=0;orthogonalLoop=1;jettySize=auto;html=1;entryX=0.5;entryY=0;entryDx=0;entryDy=0;dashed=1;" edge="1" parent="wIIheEUebPxuth35GpuM-3" source="wIIheEUebPxuth35GpuM-20" target="wIIheEUebPxuth35GpuM-22">
          <mxGeometry relative="1" as="geometry" />
        </mxCell>
        <mxCell id="wIIheEUebPxuth35GpuM-20" value="Самовивіз" style="ellipse;whiteSpace=wrap;html=1;" vertex="1" parent="wIIheEUebPxuth35GpuM-3">
          <mxGeometry x="20" y="240" width="120" height="80" as="geometry" />
        </mxCell>
        <mxCell id="wIIheEUebPxuth35GpuM-21" value="Доставка" style="ellipse;whiteSpace=wrap;html=1;" vertex="1" parent="wIIheEUebPxuth35GpuM-3">
          <mxGeometry x="210" y="120" width="120" height="80" as="geometry" />
        </mxCell>
        <mxCell id="wIIheEUebPxuth35GpuM-40" value="&quot;include&quot;" style="edgeStyle=orthogonalEdgeStyle;rounded=0;orthogonalLoop=1;jettySize=auto;html=1;exitX=1;exitY=0;exitDx=0;exitDy=0;dashed=1;" edge="1" parent="wIIheEUebPxuth35GpuM-3" source="wIIheEUebPxuth35GpuM-22" target="wIIheEUebPxuth35GpuM-38">
          <mxGeometry relative="1" as="geometry" />
        </mxCell>
        <mxCell id="wIIheEUebPxuth35GpuM-22" value="Надати список пунктів самовивозу" style="ellipse;whiteSpace=wrap;html=1;" vertex="1" parent="wIIheEUebPxuth35GpuM-3">
          <mxGeometry x="20" y="370" width="120" height="80" as="geometry" />
        </mxCell>
        <mxCell id="wIIheEUebPxuth35GpuM-38" value="Оплата за отримання" style="ellipse;whiteSpace=wrap;html=1;" vertex="1" parent="wIIheEUebPxuth35GpuM-3">
          <mxGeometry x="210" y="305" width="120" height="80" as="geometry" />
        </mxCell>
        <mxCell id="wIIheEUebPxuth35GpuM-58" value="Реєстрація" style="ellipse;whiteSpace=wrap;html=1;" vertex="1" parent="wIIheEUebPxuth35GpuM-3">
          <mxGeometry x="130" y="190" width="120" height="80" as="geometry" />
        </mxCell>
        <mxCell id="wIIheEUebPxuth35GpuM-12" style="edgeStyle=orthogonalEdgeStyle;rounded=0;orthogonalLoop=1;jettySize=auto;html=1;entryX=1;entryY=0.5;entryDx=0;entryDy=0;endArrow=none;endFill=0;" edge="1" parent="1" source="wIIheEUebPxuth35GpuM-4" target="wIIheEUebPxuth35GpuM-10">
          <mxGeometry relative="1" as="geometry" />
        </mxCell>
        <mxCell id="wIIheEUebPxuth35GpuM-23" style="edgeStyle=orthogonalEdgeStyle;rounded=0;orthogonalLoop=1;jettySize=auto;html=1;entryX=1;entryY=0.5;entryDx=0;entryDy=0;endArrow=none;endFill=0;" edge="1" parent="1" source="wIIheEUebPxuth35GpuM-4" target="wIIheEUebPxuth35GpuM-22">
          <mxGeometry relative="1" as="geometry">
            <Array as="points">
              <mxPoint x="615" y="650" />
            </Array>
          </mxGeometry>
        </mxCell>
        <mxCell id="wIIheEUebPxuth35GpuM-4" value="Магазин" style="shape=umlActor;verticalLabelPosition=bottom;verticalAlign=top;html=1;outlineConnect=0;" vertex="1" parent="1">
          <mxGeometry x="600" y="280" width="30" height="60" as="geometry" />
        </mxCell>
        <mxCell id="wIIheEUebPxuth35GpuM-31" style="edgeStyle=orthogonalEdgeStyle;rounded=0;orthogonalLoop=1;jettySize=auto;html=1;endArrow=block;endFill=0;" edge="1" parent="1" source="wIIheEUebPxuth35GpuM-9" target="wIIheEUebPxuth35GpuM-4">
          <mxGeometry relative="1" as="geometry" />
        </mxCell>
        <mxCell id="wIIheEUebPxuth35GpuM-47" style="edgeStyle=orthogonalEdgeStyle;rounded=0;orthogonalLoop=1;jettySize=auto;html=1;entryX=1;entryY=0.5;entryDx=0;entryDy=0;" edge="1" parent="1" target="wIIheEUebPxuth35GpuM-20">
          <mxGeometry relative="1" as="geometry">
            <mxPoint x="790" y="270" as="sourcePoint" />
            <Array as="points">
              <mxPoint x="800" y="270" />
              <mxPoint x="800" y="520" />
            </Array>
          </mxGeometry>
        </mxCell>
        <mxCell id="wIIheEUebPxuth35GpuM-9" value="Сховище" style="shape=umlActor;verticalLabelPosition=bottom;verticalAlign=top;html=1;outlineConnect=0;" vertex="1" parent="1">
          <mxGeometry x="750" y="230" width="30" height="60" as="geometry" />
        </mxCell>
        <mxCell id="wIIheEUebPxuth35GpuM-13" style="edgeStyle=orthogonalEdgeStyle;rounded=0;orthogonalLoop=1;jettySize=auto;html=1;verticalAlign=middle;endArrow=none;endFill=0;" edge="1" parent="1" source="wIIheEUebPxuth35GpuM-10" target="wIIheEUebPxuth35GpuM-1">
          <mxGeometry relative="1" as="geometry" />
        </mxCell>
        <mxCell id="wIIheEUebPxuth35GpuM-24" style="edgeStyle=orthogonalEdgeStyle;rounded=0;orthogonalLoop=1;jettySize=auto;html=1;endArrow=none;endFill=0;" edge="1" parent="1" source="wIIheEUebPxuth35GpuM-22" target="wIIheEUebPxuth35GpuM-1">
          <mxGeometry relative="1" as="geometry" />
        </mxCell>
        <mxCell id="wIIheEUebPxuth35GpuM-29" value="Банк" style="shape=umlActor;verticalLabelPosition=bottom;verticalAlign=top;html=1;outlineConnect=0;" vertex="1" parent="1">
          <mxGeometry x="770" y="770" width="30" height="60" as="geometry" />
        </mxCell>
        <mxCell id="wIIheEUebPxuth35GpuM-41" style="edgeStyle=orthogonalEdgeStyle;rounded=0;orthogonalLoop=1;jettySize=auto;html=1;entryX=1;entryY=0.5;entryDx=0;entryDy=0;endArrow=none;endFill=0;" edge="1" parent="1" source="wIIheEUebPxuth35GpuM-30" target="wIIheEUebPxuth35GpuM-21">
          <mxGeometry relative="1" as="geometry" />
        </mxCell>
        <mxCell id="wIIheEUebPxuth35GpuM-30" value="Пошта" style="shape=umlActor;verticalLabelPosition=bottom;verticalAlign=top;html=1;outlineConnect=0;" vertex="1" parent="1">
          <mxGeometry x="700" y="370" width="30" height="60" as="geometry" />
        </mxCell>
        <mxCell id="wIIheEUebPxuth35GpuM-42" value="вебсайт банку" style="swimlane;whiteSpace=wrap;html=1;" vertex="1" parent="1">
          <mxGeometry x="530" y="670" width="200" height="200" as="geometry" />
        </mxCell>
        <mxCell id="wIIheEUebPxuth35GpuM-43" value="Обробка онлайн платежу" style="ellipse;whiteSpace=wrap;html=1;" vertex="1" parent="wIIheEUebPxuth35GpuM-42">
          <mxGeometry x="40" y="70" width="120" height="80" as="geometry" />
        </mxCell>
        <mxCell id="wIIheEUebPxuth35GpuM-44" style="edgeStyle=orthogonalEdgeStyle;rounded=0;orthogonalLoop=1;jettySize=auto;html=1;entryX=0;entryY=0.5;entryDx=0;entryDy=0;dashed=1;" edge="1" parent="1" source="wIIheEUebPxuth35GpuM-21" target="wIIheEUebPxuth35GpuM-43">
          <mxGeometry relative="1" as="geometry">
            <Array as="points">
              <mxPoint x="420" y="470" />
              <mxPoint x="525" y="470" />
              <mxPoint x="525" y="780" />
            </Array>
          </mxGeometry>
        </mxCell>
        <mxCell id="wIIheEUebPxuth35GpuM-45" value="&quot;include&quot;" style="edgeLabel;html=1;align=center;verticalAlign=middle;resizable=0;points=[];" vertex="1" connectable="0" parent="wIIheEUebPxuth35GpuM-44">
          <mxGeometry x="0.0898" relative="1" as="geometry">
            <mxPoint as="offset" />
          </mxGeometry>
        </mxCell>
        <mxCell id="wIIheEUebPxuth35GpuM-46" style="edgeStyle=orthogonalEdgeStyle;rounded=0;orthogonalLoop=1;jettySize=auto;html=1;endArrow=none;endFill=0;" edge="1" parent="1" source="wIIheEUebPxuth35GpuM-43" target="wIIheEUebPxuth35GpuM-29">
          <mxGeometry relative="1" as="geometry" />
        </mxCell>
        <mxCell id="wIIheEUebPxuth35GpuM-53" style="edgeStyle=orthogonalEdgeStyle;rounded=0;orthogonalLoop=1;jettySize=auto;html=1;endArrow=block;endFill=0;" edge="1" parent="1" source="wIIheEUebPxuth35GpuM-48">
          <mxGeometry relative="1" as="geometry">
            <mxPoint x="60" y="470" as="targetPoint" />
          </mxGeometry>
        </mxCell>
        <mxCell id="wIIheEUebPxuth35GpuM-48" value="Новий&lt;br&gt;клієнт" style="shape=umlActor;verticalLabelPosition=bottom;verticalAlign=top;html=1;outlineConnect=0;fillStyle=auto;treeMoving=0;shadow=0;" vertex="1" parent="1">
          <mxGeometry x="80" y="500" width="30" height="60" as="geometry" />
        </mxCell>
        <mxCell id="wIIheEUebPxuth35GpuM-52" style="edgeStyle=orthogonalEdgeStyle;rounded=0;orthogonalLoop=1;jettySize=auto;html=1;endArrow=block;endFill=0;" edge="1" parent="1" source="wIIheEUebPxuth35GpuM-49" target="wIIheEUebPxuth35GpuM-1">
          <mxGeometry relative="1" as="geometry" />
        </mxCell>
        <mxCell id="wIIheEUebPxuth35GpuM-55" style="edgeStyle=orthogonalEdgeStyle;rounded=0;orthogonalLoop=1;jettySize=auto;html=1;entryX=0;entryY=0.5;entryDx=0;entryDy=0;endArrow=none;endFill=0;" edge="1" parent="1" source="wIIheEUebPxuth35GpuM-49" target="wIIheEUebPxuth35GpuM-10">
          <mxGeometry relative="1" as="geometry">
            <Array as="points">
              <mxPoint x="95" y="350" />
              <mxPoint x="190" y="350" />
              <mxPoint x="190" y="310" />
            </Array>
          </mxGeometry>
        </mxCell>
        <mxCell id="wIIheEUebPxuth35GpuM-49" value="Зареєстрований&lt;br&gt;клієнт" style="shape=umlActor;verticalLabelPosition=bottom;verticalAlign=top;html=1;outlineConnect=0;fillStyle=auto;treeMoving=0;shadow=0;" vertex="1" parent="1">
          <mxGeometry x="80" y="370" width="30" height="60" as="geometry" />
        </mxCell>
        <mxCell id="wIIheEUebPxuth35GpuM-54" style="edgeStyle=orthogonalEdgeStyle;rounded=0;orthogonalLoop=1;jettySize=auto;html=1;endArrow=none;endFill=0;" edge="1" parent="1" source="wIIheEUebPxuth35GpuM-15" target="wIIheEUebPxuth35GpuM-49">
          <mxGeometry relative="1" as="geometry" />
        </mxCell>
        <mxCell id="wIIheEUebPxuth35GpuM-59" style="edgeStyle=orthogonalEdgeStyle;rounded=0;orthogonalLoop=1;jettySize=auto;html=1;endArrow=none;endFill=0;" edge="1" parent="1" source="wIIheEUebPxuth35GpuM-58" target="wIIheEUebPxuth35GpuM-4">
          <mxGeometry relative="1" as="geometry">
            <Array as="points">
              <mxPoint x="570" y="490" />
              <mxPoint x="570" y="330" />
            </Array>
          </mxGeometry>
        </mxCell>
        <mxCell id="wIIheEUebPxuth35GpuM-60" style="edgeStyle=orthogonalEdgeStyle;rounded=0;orthogonalLoop=1;jettySize=auto;html=1;endArrow=none;endFill=0;" edge="1" parent="1" source="wIIheEUebPxuth35GpuM-58" target="wIIheEUebPxuth35GpuM-48">
          <mxGeometry relative="1" as="geometry">
            <Array as="points">
              <mxPoint x="130" y="460" />
              <mxPoint x="130" y="530" />
            </Array>
          </mxGeometry>
        </mxCell>
        <mxCell id="wIIheEUebPxuth35GpuM-61" style="edgeStyle=orthogonalEdgeStyle;rounded=0;orthogonalLoop=1;jettySize=auto;html=1;endArrow=none;endFill=0;" edge="1" parent="1" source="wIIheEUebPxuth35GpuM-38" target="wIIheEUebPxuth35GpuM-9">
          <mxGeometry relative="1" as="geometry" />
        </mxCell>
      </root>
    </mxGraphModel>
  </diagram>
</mxfile>
